<svg width="311" height="334" viewBox="0 0 311 334" fill="none" xmlns="http://www.w3.org/2000/svg">
<g clip-path="url(#clip0_2_746)" filter="url(#filter0_d_2_746)">
<path d="M69.5875 131.802C55.3037 117.741 49.2709 103.071 52.5999 90.4963C56.8721 74.3588 75.8514 63.2012 104.671 59.8842L104.778 60.8099C76.359 64.0804 57.6692 74.9877 53.5005 90.7346C50.2607 102.973 56.2059 117.322 70.2411 131.139L69.5875 131.802Z" fill="#F0F0F0"/>
<path d="M207.402 181.716C189.575 181.716 170.203 179.067 150.961 173.973C127.165 167.673 105.347 158.164 87.8655 146.475L88.3831 145.7C105.781 157.334 127.502 166.799 151.199 173.072C172.614 178.742 194.189 181.368 213.584 180.675L213.618 181.606C211.57 181.68 209.498 181.716 207.402 181.716Z" fill="#F0F0F0"/>
<path d="M248.3 175.858L248.001 174.975C263.945 169.584 273.918 160.901 276.84 149.862C280.555 135.828 272.484 119.544 254.114 104.007C235.65 88.3922 209.025 75.4355 179.142 67.5245L179.38 66.6239C209.394 74.5697 236.149 87.5934 254.715 103.296C273.376 119.078 281.553 135.7 277.741 150.1C274.734 161.455 264.554 170.362 248.3 175.858Z" fill="#F0F0F0"/>
<path d="M101.897 182.105C66.8683 166.569 39.8757 146.414 25.8923 125.35L26.6684 124.835C40.5551 145.752 67.406 165.789 102.275 181.254L101.897 182.105Z" fill="#F0F0F0"/>
<path d="M225.057 209.02C221.444 209.02 217.769 208.939 214.033 208.778L214.073 207.847C241.957 209.055 266.56 205.718 285.227 198.195L285.575 199.06C269.292 205.621 248.538 209.02 225.057 209.02Z" fill="#F0F0F0"/>
<path d="M204.733 60.7196C198.943 58.8346 192.988 57.0794 187.033 55.5028C152.763 46.4303 119.075 43.2091 89.6096 46.1892L89.5159 45.2622C119.091 42.2723 152.894 45.5012 187.271 54.6022C193.243 56.1833 199.215 57.9435 205.021 59.8339L204.733 60.7196Z" fill="#F0F0F0"/>
<path d="M47.6951 133.2C33.4113 119.138 27.3785 104.469 30.7075 91.8937C34.9797 75.7562 53.959 64.5985 82.7789 61.2816L82.8853 62.2072C54.4667 65.4778 35.7769 76.3851 31.6082 92.132C28.3683 104.37 34.3136 118.719 48.3488 132.536L47.6951 133.2Z" fill="#F0F0F0"/>
<path d="M185.51 183.113C167.683 183.113 148.31 180.464 129.068 175.37C105.273 169.07 83.4547 159.562 65.9731 147.872L66.4908 147.098C83.8883 158.731 105.61 168.196 129.307 174.469C150.721 180.139 172.297 182.766 191.692 182.073L191.726 183.003C189.677 183.077 187.605 183.114 185.51 183.113Z" fill="#F0F0F0"/>
<path d="M226.407 177.255L226.109 176.373C242.053 170.982 252.025 162.298 254.948 151.259C258.663 137.226 250.592 120.941 232.222 105.405C213.758 89.7896 187.132 76.8329 157.249 68.9219L157.488 68.0213C187.501 75.9671 214.256 88.9908 232.823 104.694C251.483 120.475 259.661 137.097 255.848 151.497C252.842 162.853 242.662 171.76 226.407 177.255Z" fill="#F0F0F0"/>
<path d="M80.0052 183.503C44.976 167.967 17.9834 147.811 4 126.748L4.77602 126.232C18.6627 147.15 45.5137 167.186 80.3827 182.651L80.0052 183.503Z" fill="#F0F0F0"/>
<path d="M203.165 210.417C199.552 210.417 195.877 210.337 192.141 210.175L192.181 209.245C220.065 210.452 244.668 207.115 263.334 199.593L263.683 200.457C247.4 207.018 226.645 210.417 203.165 210.417Z" fill="#F0F0F0"/>
<path d="M182.841 62.117C177.051 60.2319 171.096 58.4768 165.141 56.9002C130.87 47.8277 97.1824 44.6065 67.7172 47.5866L67.6235 46.6596C97.1985 43.6696 131.002 46.8986 165.379 55.9995C171.351 57.5807 177.323 59.3408 183.129 61.2313L182.841 62.117Z" fill="#F0F0F0"/>
<path d="M188.634 145.971L196.552 145.04L199.347 169.261L206.483 202.709C207.475 203.192 208.285 203.983 208.791 204.964C209.298 205.945 209.474 207.063 209.293 208.152C209.113 209.241 208.586 210.243 207.79 211.008C206.994 211.773 205.973 212.261 204.878 212.399C203.782 212.537 202.672 212.317 201.712 211.772C200.751 211.228 199.992 210.388 199.548 209.377C199.104 208.367 198.998 207.24 199.246 206.164C199.494 205.088 200.082 204.122 200.924 203.408L193.758 183.701L188.634 145.971Z" fill="#FFB6B6"/>
<path d="M177.131 318.648H183.655L186.759 293.483H177.13L177.131 318.648Z" fill="#FFB6B6"/>
<path d="M175.467 324.971H196.503V324.705C196.503 322.533 195.64 320.451 194.105 318.915C192.57 317.38 190.487 316.517 188.316 316.517H175.467V324.971Z" fill="#2F2E41"/>
<path d="M127.062 315.09L133.468 316.326L141.288 292.207L131.832 290.382L127.062 315.09Z" fill="#FFB6B6"/>
<path d="M124.231 320.983L144.886 324.972L144.936 324.711C145.348 322.578 144.896 320.37 143.679 318.571C142.463 316.772 140.582 315.53 138.45 315.119L125.835 312.682L124.231 320.983Z" fill="#2F2E41"/>
<path d="M187.36 106.28L183.57 113.553L155.179 107.291L158.289 93.19C160.751 82.0286 170.62 73.9681 181.781 76.4298C192.942 78.8915 198.15 89.8004 195.688 100.962L191.113 115.215L186.484 114.194L187.36 106.28Z" fill="#2F2E41"/>
<path d="M197.484 186.496C197.484 186.496 200.279 200.47 196.552 220.965C192.826 241.46 191.894 250.31 191.894 250.31C191.894 250.31 194.689 253.57 192.826 255.434C190.963 257.297 192.826 261.023 192.826 261.023L188.634 306.205L174.194 303.876L176.057 261.489C176.057 261.489 174.194 257.763 175.126 256.831C176.057 255.899 174.194 250.31 174.194 250.31L171.865 206.059L157.426 254.502C157.426 254.502 158.823 256.365 157.426 257.763C156.028 259.16 153.233 266.147 153.233 266.147L143.918 298.752L129.012 295.958L137.396 258.694C137.396 258.694 136.465 256.365 137.862 254.968C138.27 254.54 138.568 254.02 138.73 253.452C138.892 252.884 138.914 252.285 138.794 251.707C138.794 251.707 137.396 250.31 139.26 248.447C141.123 246.583 142.054 239.131 142.054 239.131C142.054 239.131 143.452 189.291 148.11 186.496C152.768 183.701 197.484 186.496 197.484 186.496Z" fill="#2F2E41"/>
<path d="M176.422 109.425C183.625 109.425 189.464 103.586 189.464 96.3826C189.464 89.1795 183.625 83.3403 176.422 83.3403C169.219 83.3403 163.38 89.1795 163.38 96.3826C163.38 103.586 169.219 109.425 176.422 109.425Z" fill="#FFB6B6"/>
<path d="M158.042 113.078C158.042 113.078 148.575 111.968 145.78 114.763L148.575 171.124C148.575 171.124 146.712 172.522 147.643 175.782C148.184 177.922 148.184 180.163 147.643 182.303C147.643 182.303 144.849 185.564 146.246 186.961C147.643 188.359 197.949 187.427 197.949 187.427C197.949 187.427 199.812 184.167 197.018 182.303C194.223 180.44 195.62 175.316 195.62 175.316C195.62 175.316 196.552 173.919 194.223 171.59C191.894 169.261 190.031 150.164 190.031 150.164L196.086 126.874C196.086 126.874 189.991 119.994 183.024 119.475L158.042 113.078Z" fill="#E6E6E6"/>
<path d="M188.869 127.194L196.086 126.873C196.086 126.873 200.278 135.258 200.744 142.71L203.309 170.513L186.77 172.987L188.869 127.194Z" fill="#E6E6E6"/>
<path d="M187.596 97.0295L192.44 90.7963C192.726 89.484 192.481 88.1119 191.758 86.98C191.035 85.8481 189.893 85.0483 188.583 84.7554L170.281 80.7184C168.968 80.4327 167.596 80.6781 166.464 81.401C165.332 82.1238 164.532 83.2653 164.239 84.5761L164.229 84.6227L165.54 92.1494L165.77 92.1084C177.128 90.0831 180.364 90.7958 187.41 96.8716L187.596 97.0295Z" fill="#2F2E41"/>
<path d="M138.852 196.622L139.725 159.946L140.657 133.861L151.836 135.259L145.832 197.603C146.463 198.396 146.846 199.358 146.93 200.367C147.015 201.377 146.798 202.39 146.307 203.276C145.817 204.163 145.074 204.884 144.173 205.349C143.273 205.813 142.255 206 141.248 205.886C140.241 205.772 139.29 205.362 138.516 204.708C137.742 204.054 137.18 203.185 136.9 202.211C136.62 201.237 136.635 200.202 136.943 199.236C137.252 198.271 137.839 197.419 138.632 196.787C138.704 196.73 138.777 196.676 138.852 196.622Z" fill="#FFB6B6"/>
<path d="M153.935 115.549L145.78 114.763C145.78 114.763 144.383 114.763 142.986 119.421C141.588 124.079 133.906 173.308 133.906 173.308L150.905 174.85L153.935 115.549Z" fill="#E6E6E6"/>
<path d="M76.7413 51.4856C88.4457 51.4856 97.934 41.9973 97.934 30.2929C97.934 18.5885 88.4457 9.10016 76.7413 9.10016C65.0369 9.10016 55.5486 18.5885 55.5486 30.2929C55.5486 41.9973 65.0369 51.4856 76.7413 51.4856Z" fill="#0168FF"/>
<path d="M81.7123 43.317C77.4286 43.317 73.2412 42.0468 69.6794 39.6669C66.1177 37.2871 63.3417 33.9045 61.7024 29.9469C60.0631 25.9893 59.6342 21.6345 60.4699 17.4332C61.3056 13.2318 63.3684 9.37264 66.3974 6.34364C69.4264 3.31464 73.2855 1.25187 77.4869 0.416171C81.6882 -0.419527 86.043 0.00938606 90.0006 1.64867C93.9582 3.28796 97.3408 6.06399 99.7206 9.62571C102.101 13.1874 103.371 17.3749 103.371 21.6586C103.364 27.4007 101.08 32.9059 97.02 36.9662C92.9596 41.0266 87.4545 43.3106 81.7123 43.317ZM81.7123 0.931596C77.6129 0.931592 73.6055 2.1472 70.197 4.4247C66.7885 6.7022 64.1318 9.9393 62.5631 13.7267C60.9943 17.514 60.5838 21.6815 61.3836 25.7021C62.1833 29.7228 64.1574 33.416 67.0561 36.3147C69.9548 39.2134 73.648 41.1874 77.6686 41.9872C81.6892 42.7869 85.8567 42.3765 89.6441 40.8077C93.4314 39.2389 96.6685 36.5823 98.946 33.1738C101.224 29.7653 102.439 25.7579 102.439 21.6585C102.433 16.1633 100.247 10.895 96.3615 7.00926C92.4758 3.12356 87.2075 0.937833 81.7123 0.931596Z" fill="#3F3D56"/>
<path d="M271.753 120.484C279.79 120.484 286.306 113.968 286.306 105.931C286.306 97.8933 279.79 91.3776 271.753 91.3776C263.715 91.3776 257.199 97.8933 257.199 105.931C257.199 113.968 263.715 120.484 271.753 120.484Z" fill="#0168FF"/>
<path d="M275.166 115.021C272.196 115.021 269.292 114.14 266.822 112.49C264.352 110.839 262.427 108.494 261.29 105.749C260.154 103.005 259.856 99.9851 260.436 97.0717C261.015 94.1582 262.446 91.4821 264.546 89.3816C266.647 87.2812 269.323 85.8507 272.236 85.2712C275.15 84.6917 278.169 84.9891 280.914 86.1259C283.658 87.2626 286.004 89.1877 287.654 91.6576C289.304 94.1275 290.185 97.0313 290.185 100.002C290.181 103.984 288.597 107.801 285.781 110.617C282.966 113.433 279.148 115.016 275.166 115.021ZM275.166 85.9142C272.38 85.9142 269.656 86.7404 267.34 88.2884C265.023 89.8363 263.217 92.0365 262.151 94.6107C261.085 97.1848 260.806 100.017 261.349 102.75C261.893 105.483 263.235 107.993 265.205 109.963C267.175 111.933 269.685 113.275 272.418 113.819C275.151 114.362 277.983 114.083 280.557 113.017C283.131 111.951 285.332 110.145 286.88 107.828C288.428 105.512 289.254 102.788 289.254 100.002C289.25 96.2668 287.764 92.686 285.123 90.045C282.482 87.404 278.901 85.9184 275.166 85.9142Z" fill="#3F3D56"/>
<path d="M306.534 325.443H27.0578C26.9343 325.443 26.8158 325.394 26.7285 325.307C26.6411 325.22 26.592 325.101 26.592 324.978C26.592 324.854 26.6411 324.736 26.7285 324.648C26.8158 324.561 26.9343 324.512 27.0578 324.512H306.534C306.658 324.512 306.776 324.561 306.864 324.648C306.951 324.736 307 324.854 307 324.978C307 325.101 306.951 325.22 306.864 325.307C306.776 325.394 306.658 325.443 306.534 325.443Z" fill="#CACACA"/>
<path d="M287.062 306.498C285.593 307.015 284.014 307.144 282.48 306.874C280.946 306.604 279.507 305.943 278.303 304.955C275.234 302.38 274.272 298.137 273.49 294.209L271.175 282.59L276.022 285.927C279.507 288.327 283.071 290.804 285.485 294.28C287.898 297.756 288.952 302.502 287.012 306.264" fill="#FD6584"/>
<path d="M286.314 321.374C286.924 316.929 287.551 312.428 287.123 307.936C286.743 303.946 285.526 300.05 283.048 296.855C281.733 295.162 280.132 293.712 278.319 292.569C277.846 292.271 277.411 293.02 277.881 293.318C281.019 295.301 283.447 298.23 284.813 301.681C286.322 305.52 286.564 309.704 286.303 313.782C286.146 316.248 285.813 318.697 285.477 321.144C285.451 321.255 285.467 321.371 285.523 321.47C285.58 321.569 285.671 321.643 285.78 321.677C285.891 321.707 286.009 321.692 286.109 321.635C286.208 321.578 286.282 321.485 286.313 321.374L286.314 321.374Z" fill="#F2F2F2"/>
<path d="M281.923 314.243C281.292 315.201 280.426 315.98 279.407 316.506C278.388 317.032 277.25 317.287 276.104 317.246C273.159 317.106 270.703 315.051 268.493 313.1L261.956 307.326L266.283 307.119C269.394 306.97 272.586 306.832 275.552 307.791C278.518 308.751 281.249 311.06 281.791 314.126" fill="#E6E6E6"/>
<path d="M288.038 323.929C285.104 318.733 281.695 312.957 275.608 311.111C273.916 310.6 272.141 310.417 270.38 310.571C269.825 310.618 269.964 311.475 270.52 311.427C273.472 311.182 276.419 311.962 278.863 313.634C281.216 315.236 283.048 317.462 284.598 319.823C285.547 321.267 286.398 322.777 287.248 324.282C287.518 324.763 288.313 324.416 288.038 323.929Z" fill="#F2F2F2"/>
<path d="M56.6342 312.548C57.6925 312.989 58.8467 313.151 59.9857 313.017C61.1246 312.884 62.2099 312.459 63.137 311.784C65.5006 310.021 66.3866 306.944 67.1287 304.091L69.321 295.65L65.6183 297.898C62.9554 299.515 60.2314 301.184 58.3093 303.638C56.3872 306.092 55.4148 309.531 56.6815 312.379" fill="#E6E6E6"/>
<path d="M56.9809 323.998C56.5079 318.049 56.1042 311.354 60.118 306.421C61.2351 305.05 62.6039 303.906 64.1507 303.049C64.6371 302.777 65.0013 303.565 64.5134 303.837C61.9289 305.284 59.9221 307.578 58.8308 310.332C57.7758 312.975 57.5022 315.845 57.5374 318.669C57.5575 320.398 57.6965 322.125 57.8332 323.848C57.878 324.398 57.0249 324.554 56.9809 323.998Z" fill="#F2F2F2"/>
<path d="M48.1875 176.71C59.7415 176.71 69.1077 167.343 69.1077 155.789C69.1077 144.236 59.7415 134.869 48.1875 134.869C36.6336 134.869 27.2673 144.236 27.2673 155.789C27.2673 167.343 36.6336 176.71 48.1875 176.71Z" fill="#E4E4E4"/>
<path d="M53.0947 168.653C48.865 168.653 44.7302 167.398 41.2133 165.048C37.6964 162.699 34.9554 159.359 33.3367 155.451C31.7181 151.543 31.2946 147.243 32.1198 143.094C32.945 138.946 34.9819 135.135 37.9727 132.145C40.9636 129.154 44.7742 127.117 48.9227 126.292C53.0712 125.467 57.3712 125.89 61.279 127.509C65.1867 129.127 68.5267 131.869 70.8766 135.385C73.2265 138.902 74.4808 143.037 74.4807 147.267C74.4743 152.937 72.2191 158.373 68.2098 162.382C64.2005 166.391 58.7646 168.646 53.0947 168.653ZM53.0947 126.812C49.0492 126.812 45.0946 128.012 41.7309 130.26C38.3672 132.507 35.7456 135.702 34.1974 139.439C32.6493 143.177 32.2442 147.29 33.0335 151.257C33.8227 155.225 35.7708 158.87 38.6314 161.73C41.492 164.591 45.1366 166.539 49.1043 167.328C53.0721 168.117 57.1848 167.712 60.9223 166.164C64.6598 164.616 67.8544 161.994 70.1019 158.631C72.3495 155.267 73.5491 151.312 73.5491 147.267C73.543 141.844 71.3861 136.645 67.5514 132.81C63.7168 128.976 58.5177 126.819 53.0947 126.812Z" fill="#2F2E41"/>
<path d="M35.5581 83.0709C37.6161 83.0709 39.2845 81.4025 39.2845 79.3445C39.2845 77.2865 37.6161 75.6182 35.5581 75.6182C33.5001 75.6182 31.8318 77.2865 31.8318 79.3445C31.8318 81.4025 33.5001 83.0709 35.5581 83.0709Z" fill="#F2F2F2"/>
<path d="M226.999 64.4391C229.057 64.4391 230.726 62.7707 230.726 60.7127C230.726 58.6547 229.057 56.9864 226.999 56.9864C224.941 56.9864 223.273 58.6547 223.273 60.7127C223.273 62.7707 224.941 64.4391 226.999 64.4391Z" fill="#FD6584"/>
<path d="M251.687 196.725C253.745 196.725 255.413 195.056 255.413 192.998C255.413 190.94 253.745 189.272 251.687 189.272C249.629 189.272 247.96 190.94 247.96 192.998C247.96 195.056 249.629 196.725 251.687 196.725Z" fill="#F2F2F2"/>
<path d="M84.8057 93.9243L84.947 93.0033L103.147 95.7954C101.292 94.005 95.1501 88.4678 89.5797 87.9063C82.925 87.2357 79.997 90.0844 79.61 93.9237C79.2231 97.7631 81.5234 101.139 88.1783 101.81C93.8193 102.378 101.054 98.0634 103.128 96.7351L84.8057 93.9243Z" fill="#F2F2F2"/>
<path d="M258.961 44.5895L258.399 43.8459L273.092 32.7492C270.516 32.8299 262.264 33.3704 257.977 36.9712C252.855 41.2729 252.855 45.358 255.337 48.3129C257.819 51.2677 261.842 51.9732 266.964 47.6715C271.306 44.0251 273.258 35.8308 273.753 33.418L258.961 44.5895Z" fill="#F2F2F2"/>
<path d="M224.267 151.413L223.863 150.878L234.434 142.895C232.58 142.953 226.644 143.342 223.559 145.932C219.875 149.027 219.875 151.966 221.66 154.092C223.446 156.218 226.34 156.725 230.025 153.631C233.149 151.007 234.553 145.112 234.909 143.376L224.267 151.413Z" fill="#F2F2F2"/>
<path d="M140.585 24.3387C143.449 16.6382 150.216 9.98445 158.393 9.19299C153.477 16.6531 151.358 25.6118 152.411 34.4841C152.829 37.9042 153.651 41.6647 151.807 44.5757C150.66 46.3869 148.638 47.502 146.554 48.0052C144.47 48.5084 142.298 48.4694 140.155 48.4276L139.675 48.6645C138.167 40.5882 137.721 32.0391 140.585 24.3387Z" fill="#F0F0F0"/>
<path d="M158.433 9.3608C152.858 13.2554 148.652 18.8075 146.413 25.2285C145.906 26.6023 145.619 28.0473 145.562 29.5104C145.553 30.9374 145.926 32.3409 146.643 33.5749C147.288 34.739 148.083 35.855 148.434 37.1556C148.603 37.824 148.63 38.5208 148.512 39.2002C148.393 39.8796 148.132 40.5262 147.747 41.0978C146.822 42.547 145.432 43.5776 144.038 44.5382C142.49 45.6047 140.865 46.688 139.917 48.3635C139.803 48.5665 139.494 48.3765 139.609 48.1738C141.257 45.2588 144.716 44.1999 146.832 41.7238C147.819 40.5684 148.464 39.1084 148.159 37.5699C147.892 36.2246 147.074 35.0731 146.41 33.9001C145.693 32.7065 145.28 31.3555 145.206 29.9652C145.188 28.5039 145.418 27.0503 145.888 25.6664C146.896 22.5341 148.39 19.5798 150.316 16.9116C152.496 13.8542 155.184 11.1924 158.262 9.04136C158.453 8.9083 158.622 9.22859 158.433 9.3608Z" fill="white"/>
<path d="M147.012 23.1185C145.986 22.5965 145.179 21.7267 144.734 20.6644C144.29 19.6021 144.238 18.4165 144.587 17.3193C144.659 17.0976 145.007 17.1982 144.935 17.4202C144.608 18.4413 144.657 19.5457 145.072 20.534C145.488 21.5224 146.243 22.3296 147.202 22.8101C147.41 22.9147 147.219 23.2226 147.012 23.1185Z" fill="white"/>
<path d="M146.238 33.0278C148.483 32.3189 150.377 30.7901 151.545 28.7462C151.66 28.5436 151.969 28.7335 151.853 28.9358C150.635 31.0605 148.659 32.6474 146.322 33.38C146.099 33.4496 146.017 33.097 146.238 33.0278Z" fill="white"/>
<path d="M152.744 14.2653C153.099 14.5501 153.519 14.7421 153.967 14.8244C154.415 14.9066 154.876 14.8763 155.309 14.7363C155.531 14.6639 155.613 15.0166 155.393 15.0885C154.914 15.241 154.404 15.2738 153.91 15.184C153.415 15.0943 152.95 14.8848 152.555 14.5738C152.515 14.5476 152.487 14.5073 152.476 14.461C152.465 14.4148 152.472 14.366 152.495 14.3247C152.521 14.284 152.561 14.2549 152.608 14.2438C152.654 14.2327 152.703 14.2404 152.744 14.2653Z" fill="white"/>
<path d="M178.104 28.8216C177.967 28.8708 177.83 28.92 177.692 28.9721C175.85 29.6429 174.066 30.4622 172.357 31.4219C172.224 31.494 172.09 31.5691 171.959 31.6449C167.867 34.0009 164.248 37.0962 161.285 40.7734C160.108 42.2378 159.043 43.7896 158.101 45.4154C156.801 47.6608 155.569 50.1989 153.659 51.8353C153.461 52.0082 153.253 52.1688 153.036 52.316L140.001 49.2316C139.975 49.2097 139.948 49.1908 139.922 49.1689L139.396 49.0695C139.438 48.9823 139.485 48.8927 139.527 48.8055C139.552 48.7548 139.579 48.7047 139.604 48.654C139.621 48.6204 139.639 48.5869 139.652 48.5556C139.658 48.5444 139.664 48.5332 139.669 48.525C139.683 48.4937 139.699 48.466 139.712 48.4377C139.969 47.9363 140.229 47.4359 140.494 46.9364C140.495 46.9334 140.495 46.9334 140.498 46.9311C142.479 43.1057 144.907 39.5287 147.731 36.2753C147.816 36.1793 147.902 36.0804 147.994 35.9858C149.283 34.555 150.688 33.232 152.193 32.0301C153.019 31.3745 153.878 30.7613 154.766 30.1926C157.064 28.7276 159.579 27.6333 162.217 26.9496C167.476 25.5875 173.112 25.9225 177.752 28.6126C177.87 28.6815 177.986 28.7497 178.104 28.8216Z" fill="#F0F0F0"/>
<path d="M178.036 28.9801C171.24 28.7333 164.539 30.6342 158.885 34.4126C157.653 35.2044 156.554 36.1854 155.628 37.3195C154.761 38.4534 154.214 39.7986 154.044 41.2154C153.858 42.5332 153.82 43.9027 153.317 45.1525C153.051 45.7883 152.652 46.3606 152.149 46.8318C151.645 47.3029 151.048 47.6623 150.395 47.8863C148.785 48.4869 147.054 48.4728 145.363 48.4003C143.484 48.3198 141.535 48.2064 139.77 48.9738C139.556 49.0668 139.424 48.7295 139.638 48.6367C142.709 47.3015 146.108 48.5385 149.288 47.8354C150.772 47.5073 152.166 46.7301 152.849 45.3179C153.446 44.083 153.485 42.6708 153.662 41.3348C153.808 39.9502 154.291 38.6225 155.069 37.4677C155.935 36.2901 156.994 35.2684 158.202 34.4463C160.893 32.5522 163.864 31.0928 167.008 30.1217C170.59 28.9935 174.339 28.4864 178.092 28.6223C178.324 28.6308 178.266 28.9886 178.036 28.9801Z" fill="white"/>
<path d="M160.634 33.0888C160.129 32.0541 160.008 30.8735 160.293 29.7579C160.578 28.6423 161.25 27.6643 162.189 26.9986C162.38 26.8645 162.597 27.1543 162.406 27.2885C161.53 27.9069 160.904 28.8179 160.641 29.8573C160.378 30.8967 160.495 31.996 160.971 32.9567C161.074 33.1656 160.736 33.2965 160.634 33.0888Z" fill="white"/>
<path d="M154.05 40.5348C156.269 41.3201 158.702 41.2402 160.865 40.3111C161.079 40.2189 161.211 40.5561 160.997 40.6483C158.744 41.6109 156.212 41.6889 153.905 40.8666C153.685 40.7881 153.831 40.4567 154.05 40.5348Z" fill="white"/>
<path d="M170.541 29.4711C170.653 29.9122 170.873 30.3185 171.181 30.6537C171.488 30.9888 171.875 31.2422 172.305 31.3911C172.526 31.4668 172.379 31.7981 172.16 31.7229C171.685 31.5562 171.259 31.2758 170.918 30.9063C170.577 30.5368 170.332 30.0894 170.204 29.6032C170.188 29.5584 170.189 29.5092 170.209 29.4656C170.228 29.422 170.262 29.3874 170.306 29.3686C170.351 29.3513 170.401 29.3524 170.445 29.3716C170.489 29.3908 170.523 29.4266 170.541 29.4711Z" fill="white"/>
<path d="M100.993 130.54C103.857 122.839 110.623 116.185 118.801 115.394C113.885 122.854 111.765 131.813 112.818 140.685C113.237 144.105 114.058 147.866 112.215 150.777C111.067 152.588 109.046 153.703 106.962 154.206C104.878 154.709 102.706 154.67 100.562 154.629L100.082 154.866C98.5748 146.789 98.1284 138.24 100.993 130.54Z" fill="#F0F0F0"/>
<path d="M118.841 115.562C113.266 119.456 109.06 125.009 106.821 131.43C106.314 132.803 106.027 134.248 105.97 135.711C105.961 137.138 106.334 138.542 107.051 139.776C107.696 140.94 108.491 142.056 108.841 143.357C109.011 144.025 109.038 144.722 108.919 145.401C108.801 146.081 108.54 146.727 108.154 147.299C107.23 148.748 105.84 149.779 104.445 150.739C102.897 151.806 101.272 152.889 100.325 154.564C100.21 154.768 99.902 154.578 100.017 154.375C101.665 151.46 105.124 150.401 107.24 147.925C108.227 146.769 108.872 145.309 108.567 143.771C108.3 142.426 107.481 141.274 106.818 140.101C106.101 138.907 105.688 137.557 105.613 136.166C105.595 134.705 105.826 133.251 106.296 131.867C107.304 128.735 108.798 125.781 110.723 123.113C112.904 120.055 115.592 117.393 118.67 115.242C118.861 115.109 119.03 115.43 118.841 115.562Z" fill="white"/>
<path d="M107.42 129.32C106.393 128.798 105.586 127.928 105.142 126.865C104.698 125.803 104.646 124.618 104.995 123.52C105.066 123.299 105.414 123.399 105.343 123.621C105.016 124.642 105.064 125.747 105.48 126.735C105.896 127.723 106.651 128.531 107.609 129.011C107.818 129.116 107.627 129.424 107.42 129.32Z" fill="white"/>
<path d="M106.646 139.229C108.89 138.52 110.785 136.991 111.952 134.947C112.068 134.745 112.376 134.935 112.261 135.137C111.042 137.262 109.067 138.848 106.73 139.581C106.507 139.651 106.424 139.298 106.646 139.229Z" fill="white"/>
<path d="M113.152 120.466C113.507 120.751 113.927 120.943 114.375 121.025C114.822 121.108 115.283 121.077 115.716 120.937C115.938 120.865 116.021 121.218 115.8 121.29C115.321 121.442 114.812 121.475 114.317 121.385C113.822 121.295 113.357 121.086 112.962 120.775C112.922 120.749 112.894 120.708 112.883 120.662C112.872 120.616 112.879 120.567 112.903 120.526C112.928 120.485 112.968 120.456 113.015 120.445C113.062 120.434 113.111 120.441 113.152 120.466Z" fill="white"/>
<path d="M138.512 135.023C138.374 135.072 138.237 135.121 138.099 135.173C136.258 135.844 134.474 136.663 132.765 137.623C132.632 137.695 132.498 137.77 132.367 137.846C128.274 140.202 124.655 143.297 121.693 146.974C120.515 148.439 119.451 149.991 118.509 151.616C117.208 153.862 115.977 156.4 114.066 158.036C113.869 158.209 113.661 158.37 113.444 158.517L100.409 155.433C100.383 155.411 100.356 155.392 100.329 155.37L99.8033 155.271C99.8461 155.183 99.8923 155.094 99.935 155.006C99.9596 154.956 99.987 154.906 100.012 154.855C100.029 154.821 100.046 154.788 100.06 154.757C100.066 154.745 100.072 154.734 100.077 154.726C100.09 154.695 100.106 154.667 100.119 154.639C100.376 154.137 100.637 153.637 100.902 153.137C100.902 153.134 100.902 153.134 100.906 153.132C102.887 149.307 105.315 145.73 108.138 142.476C108.224 142.38 108.31 142.281 108.401 142.187C109.691 140.756 111.095 139.433 112.6 138.231C113.427 137.576 114.286 136.962 115.174 136.394C117.472 134.929 119.986 133.834 122.624 133.151C127.883 131.789 133.52 132.124 138.159 134.814C138.278 134.883 138.394 134.951 138.512 135.023Z" fill="#F0F0F0"/>
<path d="M138.443 135.181C131.647 134.934 124.946 136.835 119.292 140.614C118.061 141.405 116.962 142.386 116.035 143.521C115.169 144.654 114.622 146 114.451 147.416C114.265 148.734 114.228 150.104 113.725 151.354C113.458 151.989 113.06 152.562 112.556 153.033C112.053 153.504 111.455 153.863 110.803 154.087C109.192 154.688 107.462 154.674 105.77 154.601C103.892 154.521 101.942 154.407 100.177 155.175C99.9634 155.268 99.8316 154.931 100.045 154.838C103.116 153.503 106.515 154.74 109.696 154.036C111.18 153.708 112.574 152.931 113.256 151.519C113.853 150.284 113.893 148.872 114.069 147.536C114.216 146.151 114.699 144.824 115.477 143.669C116.342 142.491 117.402 141.469 118.61 140.647C121.3 138.753 124.272 137.294 127.416 136.323C130.998 135.195 134.746 134.687 138.499 134.823C138.732 134.832 138.674 135.19 138.443 135.181Z" fill="white"/>
<path d="M121.041 139.29C120.536 138.255 120.415 137.075 120.7 135.959C120.985 134.843 121.657 133.865 122.597 133.2C122.787 133.066 123.005 133.355 122.814 133.49C121.938 134.108 121.312 135.019 121.049 136.058C120.785 137.098 120.902 138.197 121.378 139.158C121.482 139.367 121.144 139.498 121.041 139.29Z" fill="white"/>
<path d="M114.457 146.736C116.676 147.521 119.109 147.441 121.272 146.512C121.486 146.42 121.618 146.757 121.404 146.849C119.152 147.812 116.619 147.89 114.312 147.068C114.092 146.989 114.239 146.658 114.457 146.736Z" fill="white"/>
<path d="M130.948 135.672C131.06 136.113 131.28 136.52 131.588 136.855C131.896 137.19 132.282 137.443 132.712 137.592C132.933 137.668 132.787 137.999 132.567 137.924C132.093 137.757 131.667 137.477 131.326 137.107C130.985 136.738 130.739 136.29 130.611 135.804C130.595 135.759 130.597 135.71 130.616 135.667C130.635 135.623 130.67 135.588 130.714 135.57C130.758 135.552 130.808 135.553 130.852 135.573C130.896 135.592 130.931 135.628 130.948 135.672Z" fill="white"/>
<path d="M263.249 188.259C261.788 182.795 262.934 176.362 267.209 172.659C267.423 178.806 269.804 184.679 273.931 189.24C275.529 190.993 277.489 192.776 277.615 195.145C277.622 196.638 277.056 198.076 276.033 199.164C275.016 200.236 273.865 201.172 272.609 201.952L272.434 202.276C268.369 198.343 264.711 193.723 263.249 188.259Z" fill="#F0F0F0"/>
<path d="M267.298 172.737C265.721 177.145 265.573 181.938 266.875 186.435C267.138 187.408 267.553 188.334 268.105 189.178C268.668 189.982 269.437 190.621 270.331 191.028C271.192 191.36 272.008 191.796 272.764 192.325C273.125 192.632 273.418 193.013 273.622 193.441C273.827 193.87 273.938 194.337 273.949 194.811C273.943 195.984 273.701 197.143 273.239 198.221C272.795 199.437 272.314 200.692 272.45 202.01C272.467 202.17 272.218 202.186 272.202 202.027C271.965 199.734 273.484 197.761 273.685 195.527C273.762 195.013 273.719 194.487 273.562 193.991C273.404 193.496 273.135 193.042 272.775 192.667C272.089 192.018 271.17 191.698 270.33 191.304C269.452 190.919 268.681 190.326 268.086 189.575C267.493 188.762 267.043 187.854 266.755 186.89C266.073 184.73 265.734 182.476 265.751 180.211C265.757 177.626 266.204 175.06 267.075 172.626C267.129 172.475 267.352 172.587 267.298 172.737Z" fill="white"/>
<path d="M266.371 185.012C265.587 185.128 264.787 184.961 264.114 184.542C263.441 184.123 262.94 183.478 262.698 182.723C262.65 182.57 262.885 182.488 262.934 182.641C263.157 183.345 263.625 183.945 264.252 184.334C264.879 184.723 265.625 184.875 266.354 184.763C266.513 184.739 266.528 184.988 266.371 185.012Z" fill="white"/>
<path d="M269.886 190.883C270.863 189.59 271.317 187.977 271.158 186.364C271.142 186.204 271.391 186.188 271.407 186.348C271.57 188.026 271.093 189.704 270.073 191.047C269.976 191.175 269.789 191.01 269.886 190.883Z" fill="white"/>
<path d="M266.06 177.758C266.372 177.776 266.685 177.716 266.969 177.584C267.253 177.452 267.5 177.251 267.687 177C267.783 176.871 267.969 177.036 267.874 177.164C267.666 177.441 267.394 177.662 267.08 177.809C266.767 177.956 266.422 178.023 266.076 178.006C266.043 178.008 266.012 177.996 265.987 177.975C265.962 177.953 265.947 177.923 265.944 177.89C265.942 177.857 265.953 177.825 265.974 177.8C265.996 177.775 266.027 177.76 266.06 177.758Z" fill="white"/>
<path d="M286.097 175.82C286.039 175.903 285.982 175.985 285.925 176.069C285.159 177.18 284.484 178.351 283.907 179.571C283.861 179.664 283.816 179.76 283.772 179.854C282.414 182.808 281.617 185.988 281.419 189.233C281.342 190.524 281.363 191.82 281.483 193.108C281.647 194.886 281.968 196.802 281.547 198.482C281.506 198.658 281.453 198.831 281.39 199L272.843 202.464C272.82 202.462 272.797 202.462 272.774 202.461L272.439 202.615C272.428 202.549 272.418 202.48 272.408 202.414C272.401 202.376 272.397 202.337 272.39 202.298C272.387 202.273 272.383 202.247 272.378 202.224C272.377 202.215 272.376 202.207 272.375 202.2C272.371 202.177 272.369 202.155 272.365 202.134C272.309 201.75 272.256 201.365 272.205 200.979C272.205 200.977 272.205 200.977 272.206 200.975C271.793 198.038 271.73 195.062 272.018 192.111C272.028 192.023 272.037 191.933 272.05 191.843C272.204 190.526 272.465 189.224 272.831 187.949C273.033 187.252 273.271 186.565 273.543 185.892C274.249 184.154 275.224 182.537 276.432 181.102C278.842 178.241 282.139 176.183 285.815 175.844C285.909 175.835 286.002 175.827 286.097 175.82Z" fill="#F0F0F0"/>
<path d="M286.121 175.937C282.208 178.507 279.205 182.245 277.537 186.619C277.161 187.555 276.935 188.543 276.867 189.549C276.833 190.531 277.062 191.504 277.531 192.367C278.018 193.151 278.408 193.99 278.692 194.867C278.796 195.33 278.801 195.81 278.706 196.275C278.611 196.741 278.419 197.18 278.142 197.566C277.431 198.499 276.54 199.279 275.522 199.861C274.435 200.564 273.296 201.277 272.611 202.412C272.528 202.549 272.319 202.412 272.402 202.275C273.594 200.302 275.995 199.641 277.5 197.979C277.871 197.614 278.153 197.169 278.326 196.678C278.498 196.187 278.556 195.663 278.495 195.147C278.338 194.215 277.797 193.407 277.364 192.587C276.894 191.751 276.636 190.813 276.613 189.855C276.629 188.849 276.817 187.853 277.167 186.91C277.922 184.775 279.009 182.771 280.386 180.973C281.947 178.912 283.849 177.133 286.01 175.714C286.144 175.626 286.254 175.849 286.121 175.937Z" fill="white"/>
<path d="M277.991 185.179C277.295 184.8 276.757 184.185 276.472 183.445C276.187 182.706 276.175 181.889 276.437 181.141C276.49 180.989 276.728 181.065 276.674 181.217C276.429 181.913 276.44 182.674 276.707 183.362C276.974 184.051 277.477 184.621 278.128 184.971C278.269 185.047 278.131 185.255 277.991 185.179Z" fill="white"/>
<path d="M277.263 191.983C278.821 191.539 280.155 190.525 280.999 189.141C281.083 189.004 281.291 189.141 281.208 189.278C280.327 190.716 278.937 191.769 277.314 192.227C277.159 192.271 277.109 192.026 277.263 191.983Z" fill="white"/>
<path d="M282.11 179.2C282.349 179.403 282.634 179.543 282.94 179.608C283.247 179.674 283.565 179.662 283.865 179.574C284.02 179.529 284.069 179.773 283.916 179.818C283.584 179.914 283.233 179.926 282.894 179.855C282.555 179.783 282.239 179.63 281.973 179.408C281.947 179.389 281.928 179.361 281.921 179.329C281.915 179.297 281.92 179.264 281.937 179.236C281.956 179.208 281.984 179.189 282.016 179.182C282.049 179.175 282.082 179.182 282.11 179.2Z" fill="white"/>
</g>
<defs>
<filter id="filter0_d_2_746" x="0" y="0" width="311" height="333.443" filterUnits="userSpaceOnUse" color-interpolation-filters="sRGB">
<feFlood flood-opacity="0" result="BackgroundImageFix"/>
<feColorMatrix in="SourceAlpha" type="matrix" values="0 0 0 0 0 0 0 0 0 0 0 0 0 0 0 0 0 0 127 0" result="hardAlpha"/>
<feOffset dy="4"/>
<feGaussianBlur stdDeviation="2"/>
<feComposite in2="hardAlpha" operator="out"/>
<feColorMatrix type="matrix" values="0 0 0 0 0 0 0 0 0 0 0 0 0 0 0 0 0 0 0.25 0"/>
<feBlend mode="normal" in2="BackgroundImageFix" result="effect1_dropShadow_2_746"/>
<feBlend mode="normal" in="SourceGraphic" in2="effect1_dropShadow_2_746" result="shape"/>
</filter>
<clipPath id="clip0_2_746">
<rect width="303" height="325.443" fill="white" transform="translate(4)"/>
</clipPath>
</defs>
</svg>
